<svg xmlns="http://www.w3.org/2000/svg" width="111" height="23" viewBox="0 0 111 23">
    <g fill="#3F424A" fill-rule="evenodd">
        <path d="M0 11.667c0 5.971 5.037 10.61 10.896 10.61 6.131 0 11.1-4.983 11.1-11.07 0-3.56-1.71-6.683-4.24-8.773L15.91 5.65a7.412 7.412 0 0 1 2.576 5.603c0 4.134-3.397 7.533-7.59 7.533-4.172 0-7.568-3.399-7.568-7.647 0-.506.045-1.011.137-1.493L0 11.666zM14.315.55C13.266.161 12.332 0 11.397 0a9.03 9.03 0 0 0-1.778.184l-2.37 4.134c.866-.506 1.983-.781 3.19-.781.707 0 1.345.092 2.006.275l1.87-3.261zM37.528 13.873c0 1.019-.353 1.795-1.06 2.328-.708.533-1.766.799-3.174.799-.722 0-1.338-.049-1.847-.147a6.981 6.981 0 0 1-1.43-.43v-2.239c.504.237 1.07.435 1.7.595.631.16 1.186.24 1.665.24.983 0 1.474-.284 1.474-.853a.712.712 0 0 0-.195-.52c-.13-.133-.355-.284-.675-.452-.32-.17-.746-.366-1.278-.591-.764-.32-1.325-.616-1.683-.889a2.5 2.5 0 0 1-.78-.937C30.08 10.425 30 9.991 30 9.476c0-.883.342-1.565 1.025-2.048.684-.482 1.653-.724 2.908-.724 1.195 0 2.358.26 3.489.782l-.817 1.954a15.018 15.018 0 0 0-1.394-.524 4.374 4.374 0 0 0-1.323-.204c-.799 0-1.198.216-1.198.648 0 .243.129.453.386.631.258.178.821.441 1.691.79.776.315 1.344.608 1.705.88a2.6 2.6 0 0 1 .799.942c.171.355.257.779.257 1.27zm6.224-5.241c-.575 0-1.024.182-1.35.546-.325.365-.512.881-.56 1.55h3.8c-.011-.669-.186-1.185-.523-1.55-.338-.364-.793-.546-1.367-.546zM44.133 17c-1.598 0-2.846-.441-3.746-1.324-.9-.882-1.35-2.132-1.35-3.748 0-1.664.416-2.951 1.248-3.86.831-.91 1.981-1.364 3.449-1.364 1.402 0 2.494.4 3.276 1.2.78.799 1.171 1.904 1.171 3.313v1.315h-6.4c.03.77.257 1.37.683 1.803.426.432 1.024.649 1.794.649a7.44 7.44 0 0 0 1.695-.187 8.48 8.48 0 0 0 1.67-.595v2.096c-.474.237-.98.413-1.519.529-.538.115-1.195.173-1.97.173zm8.958-.178h-2.708V3h2.708v13.822zm5.548 0h-2.707V3h2.707v13.822zm6.952-8.19c-.574 0-1.024.182-1.35.546-.325.365-.512.881-.56 1.55h3.8c-.011-.669-.186-1.185-.523-1.55-.338-.364-.793-.546-1.367-.546zM65.972 17c-1.598 0-2.846-.441-3.746-1.324-.9-.882-1.35-2.132-1.35-3.748 0-1.664.416-2.951 1.248-3.86.831-.91 1.981-1.364 3.449-1.364 1.403 0 2.495.4 3.276 1.2.781.799 1.172 1.904 1.172 3.313v1.315H63.62c.03.77.257 1.37.683 1.803.427.432 1.024.649 1.794.649a7.44 7.44 0 0 0 1.695-.187 8.48 8.48 0 0 0 1.67-.595v2.096c-.474.237-.98.413-1.519.529-.538.115-1.195.173-1.97.173zm11.79-10.296c.367 0 .672.027.914.08l-.204 2.54a3.1 3.1 0 0 0-.799-.088c-.864 0-1.537.222-2.02.666-.482.444-.723 1.066-.723 1.866v5.054h-2.708V6.891h2.051l.4 1.67h.133a3.732 3.732 0 0 1 1.247-1.346 3.074 3.074 0 0 1 1.709-.51zm10.147 10.118h-2.708V3h2.708v13.822zm9.144 0l-.524-1.35h-.07c-.456.575-.925.973-1.408 1.195-.482.222-1.11.333-1.886.333-.953 0-1.703-.272-2.25-.817-.548-.545-.822-1.32-.822-2.328 0-1.054.368-1.831 1.105-2.332.737-.5 1.848-.777 3.334-.83l1.722-.053v-.436c0-1.006-.515-1.51-1.545-1.51-.793 0-1.725.24-2.796.72l-.897-1.83c1.143-.598 2.41-.897 3.8-.897 1.332 0 2.353.29 3.063.87.71.58 1.065 1.463 1.065 2.647v6.618h-1.89zm-.799-4.601l-1.047.035c-.788.024-1.373.166-1.758.427-.385.26-.577.657-.577 1.19 0 .764.438 1.146 1.314 1.146.627 0 1.129-.18 1.504-.542.376-.361.564-.84.564-1.439v-.817zm11-5.517c1.171 0 2.089.458 2.752 1.373.663.915.994 2.169.994 3.762 0 1.64-.342 2.91-1.025 3.81-.684.9-1.615 1.351-2.792 1.351-1.166 0-2.08-.423-2.744-1.27h-.186l-.453 1.092h-2.068V3h2.707v3.216c0 .408-.035 1.063-.106 1.963h.106c.634-.983 1.572-1.475 2.815-1.475zm-.87 2.168c-.67 0-1.157.206-1.465.617-.308.412-.468 1.091-.48 2.039v.293c0 1.066.159 1.83.475 2.292.317.462.819.693 1.505.693.556 0 .999-.256 1.327-.769.329-.512.493-1.257.493-2.234 0-.977-.166-1.71-.497-2.198-.332-.489-.784-.733-1.358-.733z"/>
    </g>
</svg>
